<?xml version="1.0" encoding="UTF-8" standalone="no"?>
<!DOCTYPE svg PUBLIC "-//W3C//DTD SVG 1.1//EN" "http://www.w3.org/Graphics/SVG/1.1/DTD/svg11.dtd">
<svg width="100%" height="100%" viewBox="0 0 431 361" version="1.1" xmlns="http://www.w3.org/2000/svg" xmlns:xlink="http://www.w3.org/1999/xlink" xml:space="preserve" xmlns:serif="http://www.serif.com/" style="fill-rule:evenodd;clip-rule:evenodd;stroke-linecap:square;stroke-miterlimit:1.5;">
    <g transform="matrix(1.00937,0,0,1.0112,-0.0198062,-0.0168346)">
        <path d="M2.001,1.994L2.001,355.003" style="fill:none;stroke:black;stroke-width:4px;"/>
    </g>
    <path d="M429,2L2,2" style="fill:none;stroke:black;stroke-width:4px;"/>
    <path d="M429,2L429,358.964" style="fill:none;stroke:black;stroke-width:4px;"/>
    <path d="M271,358.964L2,358.964" style="fill:none;stroke:black;stroke-width:4px;"/>
    <path d="M429,358.964L343,358.964" style="fill:none;stroke:black;stroke-width:4px;"/>
    <path d="M2,62L124,62" style="fill:none;stroke:black;stroke-width:4px;"/>
    <path d="M124,62L124,50" style="fill:none;stroke:black;stroke-width:4px;"/>
    <path d="M124,2L124,14" style="fill:none;stroke:black;stroke-width:4px;"/>
    <path d="M124,14L124,50" style="fill:none;stroke:black;stroke-width:2px;"/>
    <g transform="matrix(0.360533,-0.261942,1.36014,1.87208,-136.235,-60.1238)">
        <path d="M189.51,151.051L101.996,151.051L101.996,192.97L189.51,192.97L189.51,151.051ZM110.972,152.78L110.972,191.241L180.534,191.241L180.534,152.78L110.972,152.78Z"/>
    </g>
    <g transform="matrix(2.72878e-17,-0.445643,2.31402,1.41693e-16,-19.6209,308.168)">
        <path d="M189.51,151.051L101.996,151.051L101.996,192.97L189.51,192.97L189.51,151.051ZM180.534,152.78L110.972,152.78L110.972,191.241L180.534,191.241L180.534,152.78Z"/>
    </g>
    <g transform="matrix(0.445643,0,0,2.31402,118.898,-345.483)">
        <path d="M189.51,151.051L101.996,151.051L101.996,192.97L189.51,192.97L189.51,151.051ZM110.972,152.78L110.972,191.241L180.534,191.241L180.534,152.78L110.972,152.78Z"/>
    </g>
    <g transform="matrix(0.889413,0,0,0.889413,-196.226,-122.882)">
        <path d="M238.052,138.161C247.67,138.161 255.479,145.97 255.479,155.588C255.479,165.206 247.67,173.015 238.052,173.015C228.433,173.015 220.624,165.206 220.624,155.588C220.624,145.97 228.433,138.161 238.052,138.161ZM238.052,142.658C245.188,142.658 250.981,148.452 250.981,155.588C250.981,162.724 245.188,168.518 238.052,168.518C230.915,168.518 225.122,162.724 225.122,155.588C225.122,148.452 230.915,142.658 238.052,142.658Z"/>
    </g>
</svg>
