<?xml version="1.0" encoding="UTF-8" standalone="no"?>
<!DOCTYPE svg PUBLIC "-//W3C//DTD SVG 1.1//EN" "http://www.w3.org/Graphics/SVG/1.1/DTD/svg11.dtd">
<svg width="100%" height="100%" viewBox="0 0 391 720" version="1.1" xmlns="http://www.w3.org/2000/svg" xmlns:xlink="http://www.w3.org/1999/xlink" xml:space="preserve" xmlns:serif="http://www.serif.com/" style="fill-rule:evenodd;clip-rule:evenodd;stroke-linecap:square;stroke-miterlimit:1.5;">
    <path d="M364.998,155L340,155L340,32C340.154,25.04 336.505,22.034 330,22L2,22" style="fill:none;stroke:black;stroke-width:2px;"/>
    <path d="M364.628,537.94L53,485L30.767,455.791" style="fill:none;stroke:black;stroke-width:4px;"/>
    <path d="M8.876,427.034L2,418L2,2L364.998,2L364.998,155L365.002,155.049L389.002,202.978L365.002,250.906L389.002,298.835L365.002,346.763L364.984,347.13L388.8,394.692L364.8,442.621L388.8,490.549L365.153,538" style="fill:none;stroke:black;stroke-width:4px;"/>
    <g transform="matrix(1.1927,0,0,1.1927,-3.83903,-28.6762)">
        <rect x="21.462" y="154" width="20.426" height="20.426" style="fill:none;stroke:black;stroke-width:3.35px;"/>
    </g>
    <g transform="matrix(1.0447,0,0,1,-8.8162,0)">
        <path d="M85.951,398.867L304.85,398.867" style="fill:none;stroke:rgb(5,204,128);stroke-width:3.91px;stroke-linecap:round;"/>
    </g>
    <g transform="matrix(0.54493,0,0,0.54493,33.2942,180.188)">
        <path d="M85.951,398.867L86.919,672.521" style="fill:none;stroke:rgb(255,0,132);stroke-width:1.84px;stroke-linecap:round;stroke-dasharray:1.84,7.34,0,0;stroke-dashoffset:3.67;"/>
    </g>
    <g transform="matrix(0.552678,0,0,0.552678,141.177,178.422)">
        <path d="M304.85,398.867L304.85,672.521" style="fill:none;stroke:rgb(255,0,132);stroke-width:1.81px;stroke-linecap:round;stroke-dasharray:1.81,7.24,0,0;stroke-dashoffset:3.62;"/>
    </g>
    <g transform="matrix(0.870902,0,0,1.05308,29.5433,-29.0161)">
        <rect x="59.058" y="546.664" width="262.998" height="134.194" style="fill:none;stroke:rgb(5,204,128);stroke-width:2.07px;stroke-linecap:round;stroke-dasharray:2.07,4.14,0,0;stroke-dashoffset:4.14;"/>
    </g>
</svg>
