<?xml version="1.0" encoding="UTF-8" standalone="no"?>
<!DOCTYPE svg PUBLIC "-//W3C//DTD SVG 1.1//EN" "http://www.w3.org/Graphics/SVG/1.1/DTD/svg11.dtd">
<svg width="100%" height="100%" viewBox="0 0 391 720" version="1.1" xmlns="http://www.w3.org/2000/svg" xmlns:xlink="http://www.w3.org/1999/xlink" xml:space="preserve" xmlns:serif="http://www.serif.com/" style="fill-rule:evenodd;clip-rule:evenodd;stroke-linecap:square;stroke-miterlimit:1.5;">
    <path d="M364.998,155L340,155L340,32C340.154,25.04 336.505,22.034 330,22L2,22" style="fill:none;stroke:black;stroke-width:2px;"/>
    <path d="M364.628,537.94L53,485L30.767,455.791" style="fill:none;stroke:black;stroke-width:4px;"/>
    <path d="M8.876,427.034L2,418L2,2L364.998,2L364.998,155L365.002,155.049L389.002,202.978L365.002,250.906L389.002,298.835L365.002,346.763L364.984,347.13L388.8,394.692L364.8,442.621L388.8,490.549L365.153,538" style="fill:none;stroke:black;stroke-width:4px;"/>
    <g transform="matrix(1.1927,0,0,1.1927,-3.83903,-28.6762)">
        <rect x="21.462" y="154" width="20.426" height="20.426" style="fill:none;stroke:black;stroke-width:3.35px;"/>
    </g>
    <g transform="matrix(1.0447,0,0,1,-8.8162,0)">
        <path d="M85.951,398.867L304.85,398.867" style="fill:none;stroke:rgb(5,204,128);stroke-width:3.91px;stroke-linecap:round;"/>
    </g>
    <g transform="matrix(0.54493,0,0,0.54493,33.2942,180.188)">
        <path d="M85.951,398.867L86.919,672.521" style="fill:none;stroke:rgb(255,0,132);stroke-width:1.84px;stroke-linecap:round;stroke-dasharray:1.84,7.34,0,0;stroke-dashoffset:3.67;"/>
    </g>
    <g transform="matrix(0.552678,0,0,0.552678,141.177,178.422)">
        <path d="M304.85,398.867L304.85,672.521" style="fill:none;stroke:rgb(255,0,132);stroke-width:1.81px;stroke-linecap:round;stroke-dasharray:1.81,7.24,0,0;stroke-dashoffset:3.62;"/>
    </g>
    <g transform="matrix(0.870902,0,0,1.05308,29.5433,-29.0161)">
        <rect x="59.058" y="546.664" width="262.998" height="134.194" style="fill:none;stroke:rgb(5,204,128);stroke-width:2.07px;stroke-linecap:round;stroke-dasharray:2.07,4.14,0,0;stroke-dashoffset:4.14;"/>
    </g>
    <g transform="matrix(-0.639969,0,0,0.639969,340.213,158.45)">
        <circle cx="119.178" cy="652.125" r="21.095" style="fill:rgb(255,0,0);stroke:rgb(255,0,0);stroke-width:6.25px;stroke-linecap:round;"/>
    </g>
    <g transform="matrix(-0.639969,0,0,0.639969,367.213,185.45)">
        <circle cx="119.178" cy="652.125" r="21.095" style="fill:rgb(255,0,0);stroke:rgb(255,0,0);stroke-width:6.25px;stroke-linecap:round;"/>
    </g>
    <g transform="matrix(-0.639969,0,0,0.639969,306.306,158.45)">
        <circle cx="119.178" cy="652.125" r="21.095" style="fill:rgb(255,0,0);stroke:rgb(255,0,0);stroke-width:6.25px;stroke-linecap:round;"/>
    </g>
    <g transform="matrix(-0.639969,0,0,0.639969,273.797,158.45)">
        <circle cx="119.178" cy="652.125" r="21.095" style="fill:rgb(255,0,0);stroke:rgb(255,0,0);stroke-width:6.25px;stroke-linecap:round;"/>
    </g>
    <g transform="matrix(-0.639969,0,0,0.639969,237.514,158.45)">
        <circle cx="119.178" cy="652.125" r="21.095" style="fill:rgb(255,0,0);stroke:rgb(255,0,0);stroke-width:6.25px;stroke-linecap:round;"/>
    </g>
    <g transform="matrix(-0.639969,0,0,0.639969,217.79,188.472)">
        <circle cx="119.178" cy="652.125" r="21.095" style="fill:rgb(255,0,0);stroke:rgb(255,0,0);stroke-width:6.25px;stroke-linecap:round;"/>
    </g>
    <g transform="matrix(-0.639969,0,0,0.639969,256.818,188.472)">
        <circle cx="119.178" cy="652.125" r="21.095" style="fill:rgb(255,0,0);stroke:rgb(255,0,0);stroke-width:6.25px;stroke-linecap:round;"/>
    </g>
    <g transform="matrix(-0.639969,0,0,0.639969,288.782,186.882)">
        <circle cx="119.178" cy="652.125" r="21.095" style="fill:rgb(255,0,0);stroke:rgb(255,0,0);stroke-width:6.25px;stroke-linecap:round;"/>
    </g>
    <g transform="matrix(-0.639969,0,0,0.639969,321.1,186.882)">
        <circle cx="119.178" cy="652.125" r="21.095" style="fill:rgb(255,0,0);stroke:rgb(255,0,0);stroke-width:6.25px;stroke-linecap:round;"/>
    </g>
    <g transform="matrix(-0.639969,0,0,0.639969,306.306,215.825)">
        <circle cx="119.178" cy="652.125" r="21.095" style="fill:rgb(255,0,0);stroke:rgb(255,0,0);stroke-width:6.25px;stroke-linecap:round;"/>
    </g>
    <g transform="matrix(-0.639969,0,0,0.639969,340.213,213.882)">
        <circle cx="119.178" cy="652.125" r="21.095" style="fill:rgb(255,0,0);stroke:rgb(255,0,0);stroke-width:6.25px;stroke-linecap:round;"/>
    </g>
    <g transform="matrix(-0.639969,0,0,0.639969,236.686,215.491)">
        <circle cx="119.178" cy="652.125" r="21.095" style="fill:rgb(255,0,0);stroke:rgb(255,0,0);stroke-width:6.25px;stroke-linecap:round;"/>
    </g>
    <g transform="matrix(-0.639969,0,0,0.639969,236.686,247.455)">
        <circle cx="119.178" cy="652.125" r="21.095" style="fill:rgb(255,0,0);stroke:rgb(255,0,0);stroke-width:6.25px;stroke-linecap:round;"/>
    </g>
    <g transform="matrix(-0.639969,0,0,0.639969,202.583,158.45)">
        <circle cx="119.178" cy="652.125" r="21.095" style="fill:rgb(255,0,0);stroke:rgb(255,0,0);stroke-width:6.25px;stroke-linecap:round;"/>
    </g>
    <g transform="matrix(-0.639969,0,0,0.639969,177.051,222.025)">
        <circle cx="119.178" cy="652.125" r="21.095" style="fill:rgb(255,0,0);stroke:rgb(255,0,0);stroke-width:6.25px;stroke-linecap:round;"/>
    </g>
    <g transform="matrix(0.870968,0,0,1,99.656,-9.01173)">
        <path d="M50,80L81,80" style="fill:none;stroke:rgb(0,127,255);stroke-width:4.27px;stroke-linecap:round;"/>
    </g>
    <g transform="matrix(0.870968,-1.66533e-16,1.45045e-16,1,138.452,16.3338)">
        <path d="M50,80L81,80" style="fill:none;stroke:rgb(0,127,255);stroke-width:4.27px;stroke-linecap:round;"/>
    </g>
    <g transform="matrix(0.615867,0.615867,-0.707107,0.707107,236.968,32.161)">
        <path d="M50,80L81,80" style="fill:none;stroke:rgb(0,127,255);stroke-width:4.27px;stroke-linecap:round;"/>
    </g>
    <g transform="matrix(0.870968,0,0,1,196.571,75.0227)">
        <path d="M50,80L81,80" style="fill:none;stroke:rgb(0,127,255);stroke-width:4.27px;stroke-linecap:round;"/>
    </g>
    <g transform="matrix(0.615867,0.615867,-0.707107,0.707107,274.388,7.35697)">
        <path d="M50,80L81,80" style="fill:none;stroke:rgb(0,127,255);stroke-width:4.27px;stroke-linecap:round;"/>
    </g>
    <g transform="matrix(5.33314e-17,0.870968,-1,6.12323e-17,396.026,163.084)">
        <path d="M50,80L81,80" style="fill:none;stroke:rgb(0,127,255);stroke-width:4.27px;stroke-linecap:round;"/>
    </g>
    <g transform="matrix(0.870968,0,0,1,70.6103,218.405)">
        <path d="M50,80L81,80" style="fill:none;stroke:rgb(0,127,255);stroke-width:4.27px;stroke-linecap:round;"/>
    </g>
    <g transform="matrix(0.870968,0,0,1,206.532,272.707)">
        <path d="M50,80L81,80" style="fill:none;stroke:rgb(0,127,255);stroke-width:4.27px;stroke-linecap:round;"/>
    </g>
    <g transform="matrix(0.870968,-1.11022e-16,-5.55112e-17,1,62.6696,-9.01173)">
        <path d="M50,80L81,80" style="fill:none;stroke:rgb(0,127,255);stroke-width:4.27px;stroke-linecap:round;"/>
    </g>
    <g transform="matrix(0.870968,-1.11022e-16,-5.55112e-17,1,25.6644,-9.01173)">
        <path d="M50,80L81,80" style="fill:none;stroke:rgb(0,127,255);stroke-width:4.27px;stroke-linecap:round;"/>
    </g>
</svg>
